P3
40 32
255
0
0
0
0
0
0
0
0
0
0
0
0
0
0
0
0
0
0
0
0
0
0
0
0
0
0
0
0
0
0
0
0
0
0
0
0
0
0
0
0
0
0
0
0
0
0
0
0
0
0
0
0
0
0
0
0
0
0
0
0
0
0
0
0
0
0
0
0
0
0
0
0
0
0
0
0
0
0
0
0
0
0
0
0
0
0
0
0
0
0
0
0
0
0
0
0
0
0
0
0
0
0
0
0
0
0
0
0
0
0
0
0
0
0
0
0
0
0
0
0
0
0
0
0
0
0
0
0
0
0
0
0
0
0
0
0
0
0
0
0
0
0
0
0
0
0
0
0
0
0
0
0
0
0
0
0
0
0
0
0
0
0
0
0
0
0
0
0
0
0
0
0
0
0
0
0
0
255
255
255
0
0
0
0
0
0
0
0
0
0
0
0
0
0
0
0
0
0
0
0
0
0
0
0
0
0
0
0
0
0
0
0
0
0
0
0
0
0
0
0
0
0
0
0
0
0
0
0
0
0
0
0
0
0
0
0
0
0
0
0
0
0
0
0
0
0
0
0
0
0
0
0
0
0
0
0
0
0
0
0
0
0
0
0
0
0
0
0
0
0
0
0
0
0
0
0
0
0
0
0
0
0
0
0
0
0
0
0
0
0
0
0
0
0
0
0
0
255
255
255
0
0
0
0
0
0
0
0
0
0
0
0
0
0
0
0
0
0
0
0
0
0
0
0
0
0
0
0
0
0
0
0
0
0
0
0
0
0
0
0
0
0
0
0
0
0
0
0
0
0
0
0
0
0
0
0
0
0
0
0
0
0
0
0
0
0
0
0
0
0
0
0
0
0
0
0
0
0
0
0
0
0
0
0
0
0
0
0
0
0
0
0
0
0
0
0
0
0
0
0
0
0
0
0
0
0
0
0
0
0
0
255
255
255
255
255
255
0
0
0
255
255
255
255
255
255
0
0
0
0
0
0
0
0
0
0
0
0
0
0
0
0
0
0
0
0
0
0
0
0
0
0
0
0
0
0
0
0
0
0
0
0
0
0
0
0
0
0
0
0
0
0
0
0
0
0
0
0
0
0
0
0
0
0
0
0
0
0
0
0
0
0
0
0
0
0
0
0
0
0
0
0
0
0
0
0
0
0
0
0
0
0
0
0
0
0
0
0
0
0
0
0
0
0
0
0
0
0
0
0
0
0
0
0
0
0
0
255
255
255
0
0
0
0
0
0
0
0
0
0
0
0
0
0
0
0
0
0
0
0
0
0
0
0
0
0
0
0
0
0
0
0
0
0
0
0
0
0
0
0
0
0
0
0
0
0
0
0
0
0
0
0
0
0
0
0
0
0
0
0
0
0
0
0
0
0
0
0
0
0
0
0
0
0
0
0
0
0
0
0
0
0
0
0
0
0
0
0
0
0
0
0
0
0
0
0
0
0
0
0
0
0
0
0
0
0
0
0
0
0
0
0
0
0
0
0
0
255
255
255
0
0
0
0
0
0
0
0
0
0
0
0
0
0
0
0
0
0
0
0
0
0
0
0
0
0
0
0
0
0
0
0
0
0
0
0
0
0
0
0
0
0
0
0
0
0
0
0
0
0
0
0
0
0
0
0
0
0
0
0
0
0
0
0
0
0
0
0
0
0
0
0
0
0
0
0
0
0
0
0
0
0
0
0
0
0
0
0
0
0
0
0
0
0
0
0
0
0
0
0
0
0
0
0
0
0
0
0
0
0
0
0
0
0
0
0
0
0
0
0
0
0
0
0
0
0
0
0
0
0
0
0
0
0
0
0
0
0
0
0
0
0
0
0
0
0
0
0
0
0
0
0
0
0
0
0
0
0
0
0
0
0
0
0
0
0
0
0
0
0
0
0
0
0
0
0
0
0
0
0
0
0
0
0
0
0
0
0
0
0
0
0
0
0
0
0
0
0
0
0
0
0
0
0
0
0
0
0
0
0
0
0
0
0
0
0
0
0
0
0
0
0
0
0
0
0
0
0
0
0
0
0
0
0
0
0
0
0
0
0
0
0
0
0
0
0
0
0
0
0
0
0
0
0
0
0
0
0
0
0
0
0
0
0
0
0
0
0
0
0
0
0
0
0
0
0
0
0
0
0
0
0
0
0
0
0
0
0
0
0
0
0
0
0
0
0
0
0
0
0
0
0
0
0
0
0
0
0
0
0
0
0
0
0
0
0
0
0
0
0
0
0
0
0
0
0
0
0
0
0
0
0
0
253
255
129
253
255
129
253
255
129
253
255
129
253
255
129
253
255
129
253
255
129
253
255
129
253
255
129
253
255
129
253
255
129
253
255
129
253
255
129
253
255
129
253
255
129
253
255
129
253
255
129
253
255
129
253
255
129
0
0
0
0
0
0
0
0
0
0
0
0
0
0
0
0
0
0
0
0
0
0
0
0
0
0
0
0
0
0
255
41
18
255
41
18
255
41
18
255
41
18
255
41
18
255
41
18
255
41
18
255
41
18
255
41
18
0
0
0
253
255
129
253
255
129
253
255
129
255
126
255
255
126
255
255
126
255
255
126
255
255
126
255
255
126
255
255
126
255
255
126
255
255
126
255
255
126
255
255
126
255
255
126
255
255
126
255
255
126
255
255
126
255
253
255
129
253
255
129
253
255
129
0
0
0
0
0
0
0
0
0
0
0
0
0
0
0
0
0
0
0
0
0
0
0
0
0
0
0
255
41
18
255
41
18
255
41
18
255
41
18
255
41
18
255
41
18
255
41
18
255
41
18
255
41
18
0
0
0
253
255
129
253
255
129
255
126
255
255
126
255
255
126
255
255
126
255
255
126
255
255
126
255
255
126
255
255
255
255
255
126
255
255
126
255
255
126
255
255
255
255
255
126
255
255
126
255
255
126
255
255
126
255
255
126
255
253
255
129
253
255
129
0
0
0
0
0
0
0
0
0
0
0
0
0
0
0
0
0
0
0
0
0
0
0
0
0
0
0
255
41
18
255
41
18
255
41
18
255
41
18
255
41
18
255
41
18
255
41
18
255
41
18
255
41
18
0
0
0
253
255
129
255
126
255
255
126
255
255
126
255
255
255
255
255
126
255
255
126
255
255
126
255
255
126
255
255
126
255
255
126
255
255
126
255
255
126
255
255
126
255
255
126
255
255
126
255
255
126
255
255
126
255
255
126
255
255
126
255
253
255
129
0
0
0
0
0
0
0
0
0
0
0
0
0
0
0
0
0
0
0
0
0
0
0
0
0
0
0
255
41
18
255
41
18
255
41
18
255
41
18
255
41
18
255
41
18
255
41
18
255
41
18
255
41
18
0
0
0
253
255
129
255
126
255
255
126
255
255
126
255
255
126
255
255
126
255
255
126
255
255
126
255
255
126
255
255
126
255
255
126
255
255
126
255
255
126
255
255
126
255
0
0
0
0
0
0
255
126
255
255
255
255
255
126
255
255
126
255
253
255
129
0
0
0
0
0
0
0
0
0
0
0
0
0
0
0
0
0
0
0
0
0
0
0
0
0
0
0
255
41
18
255
41
18
255
41
18
255
41
18
255
41
18
255
41
18
255
41
18
255
41
18
255
41
18
0
0
0
253
255
129
255
126
255
255
126
255
255
126
255
255
126
255
255
126
255
255
126
255
255
126
255
255
126
255
255
126
255
255
126
255
255
126
255
255
126
255
0
0
0
127
129
126
127
129
126
0
0
0
255
126
255
255
126
255
255
126
255
253
255
129
0
0
0
0
0
0
0
0
0
127
129
126
127
129
126
0
0
0
0
0
0
0
0
0
0
0
0
255
41
18
255
41
18
255
41
18
255
41
18
255
41
18
255
41
18
255
41
18
255
41
18
255
41
18
0
0
0
253
255
129
255
126
255
255
126
255
255
126
255
255
126
255
255
126
255
255
126
255
255
126
255
255
255
255
255
126
255
255
126
255
255
126
255
255
126
255
0
0
0
127
129
126
127
129
126
127
129
126
0
0
0
255
126
255
255
126
255
253
255
129
0
0
0
0
0
0
127
129
126
127
129
126
127
129
126
0
0
0
0
0
0
0
0
0
0
0
0
0
255
0
0
255
0
0
255
0
0
255
0
0
0
0
0
0
0
0
255
0
0
255
0
0
255
0
0
0
0
253
255
129
255
126
255
255
126
255
255
126
255
255
126
255
255
126
255
255
126
255
255
126
255
255
126
255
255
126
255
255
126
255
255
126
255
255
126
255
0
0
0
127
129
126
127
129
126
127
129
126
127
129
126
0
0
0
0
0
0
0
0
0
0
0
0
127
129
126
127
129
126
127
129
126
127
129
126
0
0
0
0
0
0
0
0
0
0
0
0
0
255
0
0
255
0
0
255
0
0
0
0
127
129
126
127
129
126
0
0
0
0
255
0
0
255
0
0
0
0
253
255
129
255
126
255
255
126
255
255
126
255
255
126
255
255
255
255
255
126
255
255
126
255
255
126
255
255
126
255
255
126
255
255
126
255
255
126
255
0
0
0
127
129
126
127
129
126
127
129
126
127
129
126
127
129
126
127
129
126
127
129
126
127
129
126
127
129
126
127
129
126
127
129
126
127
129
126
0
0
0
0
0
0
0
0
0
0
0
0
0
255
0
0
255
0
0
255
0
0
0
0
127
129
126
127
129
126
0
0
0
0
0
0
0
0
0
0
0
0
253
255
129
255
126
255
255
126
255
255
126
255
255
126
255
255
126
255
255
126
255
255
126
255
255
126
255
255
255
255
255
126
255
255
126
255
0
0
0
127
129
126
127
129
126
127
129
126
127
129
126
127
129
126
127
129
126
127
129
126
127
129
126
127
129
126
127
129
126
127
129
126
127
129
126
127
129
126
127
129
126
0
0
0
0
0
0
0
0
0
0
255
0
0
255
0
0
255
0
0
255
0
0
0
0
127
129
126
127
129
126
127
129
126
127
129
126
0
0
0
253
255
129
255
126
255
255
126
255
255
255
255
255
126
255
255
126
255
255
126
255
255
126
255
255
126
255
255
126
255
255
126
255
255
126
255
0
0
0
127
129
126
127
129
126
127
129
126
255
255
255
0
0
0
127
129
126
127
129
126
127
129
126
127
129
126
127
129
126
255
255
255
0
0
0
127
129
126
127
129
126
0
0
0
0
0
0
0
0
0
0
255
0
0
255
0
0
255
0
0
255
0
0
255
0
0
0
0
0
0
0
127
129
126
127
129
126
0
0
0
253
255
129
255
126
255
255
126
255
255
126
255
255
126
255
255
126
255
255
126
255
255
126
255
255
126
255
255
126
255
255
126
255
255
126
255
0
0
0
127
129
126
127
129
126
127
129
126
0
0
0
0
0
0
127
129
126
127
129
126
127
129
126
0
0
0
127
129
126
0
0
0
0
0
0
127
129
126
127
129
126
0
0
0
0
0
0
0
0
0
0
255
0
0
255
0
0
255
0
0
255
0
0
255
0
0
255
0
0
255
0
0
0
0
0
0
0
0
0
0
253
255
129
255
126
255
255
126
255
255
126
255
255
126
255
255
126
255
255
126
255
255
255
255
255
126
255
255
126
255
255
126
255
255
126
255
0
0
0
127
129
126
255
41
18
255
41
18
127
129
126
127
129
126
127
129
126
127
129
126
127
129
126
127
129
126
127
129
126
127
129
126
127
129
126
255
41
18
255
41
18
0
0
0
0
0
0
0
0
0
0
129
255
0
129
255
0
129
255
0
129
255
0
129
255
0
129
255
0
129
255
0
129
255
0
129
255
0
0
0
253
255
129
253
255
129
255
126
255
255
126
255
255
255
255
255
126
255
255
126
255
255
126
255
255
126
255
255
126
255
255
126
255
255
126
255
0
0
0
127
129
126
255
41
18
255
41
18
127
129
126
0
0
0
127
129
126
127
129
126
0
0
0
127
129
126
127
129
126
0
0
0
127
129
126
255
41
18
255
41
18
0
0
0
0
0
0
0
0
0
0
129
255
0
129
255
0
129
255
0
129
255
0
129
255
0
129
255
0
129
255
0
129
255
0
129
255
0
0
0
253
255
129
253
255
129
253
255
129
255
126
255
255
126
255
255
126
255
255
126
255
255
126
255
255
126
255
255
126
255
255
126
255
255
126
255
255
126
255
0
0
0
127
129
126
127
129
126
127
129
126
0
0
0
0
0
0
0
0
0
0
0
0
0
0
0
0
0
0
0
0
0
127
129
126
127
129
126
0
0
0
0
0
0
0
0
0
0
0
0
0
129
255
0
129
255
0
129
255
0
129
255
0
129
255
0
129
255
0
129
255
0
129
255
0
129
255
0
0
0
0
0
0
253
255
129
253
255
129
253
255
129
253
255
129
253
255
129
253
255
129
253
255
129
253
255
129
253
255
129
253
255
129
253
255
129
253
255
129
253
255
129
0
0
0
127
129
126
127
129
126
127
129
126
127
129
126
127
129
126
127
129
126
127
129
126
127
129
126
127
129
126
127
129
126
0
0
0
0
0
0
0
0
0
0
0
0
0
0
0
0
129
255
0
129
255
0
129
255
0
129
255
0
129
255
0
129
255
0
129
255
0
129
255
0
0
0
127
129
126
127
129
126
0
0
0
0
0
0
0
0
0
0
0
0
0
0
0
0
0
0
0
0
0
0
0
0
0
0
0
0
0
0
0
0
0
0
0
0
0
0
0
0
0
0
0
0
0
0
0
0
0
0
0
0
0
0
0
0
0
0
0
0
0
0
0
0
0
0
0
0
0
0
0
0
0
0
0
0
0
0
0
0
0
0
0
0
0
0
0
0
129
255
0
129
255
0
129
255
0
129
255
0
129
255
0
129
255
0
129
255
0
129
255
0
0
0
127
129
126
127
129
126
0
0
0
0
0
0
0
0
0
127
129
126
127
129
126
0
0
0
0
0
0
0
0
0
0
0
0
0
0
0
0
0
0
0
0
0
0
0
0
0
0
0
127
129
126
127
129
126
0
0
0
0
0
0
0
0
0
127
129
126
127
129
126
0
0
0
0
0
0
0
0
0
0
0
0
0
0
0
0
0
0
0
0
0
255
255
255
0
129
255
0
129
255
0
129
255
0
129
255
0
129
255
0
129
255
0
129
255
0
129
255
0
0
0
0
0
0
0
0
0
0
0
0
0
0
0
0
0
0
0
0
0
0
0
0
0
0
0
0
0
0
0
0
0
0
0
0
0
0
0
0
0
0
0
0
0
0
0
0
0
0
0
0
0
0
0
0
0
0
0
0
0
0
0
0
0
0
0
0
0
0
0
0
0
0
0
0
0
0
0
0
0
0
0
0
0
0
0
0
0
0
0
0
0
0
0
0
0
0
0
0
0
0
0
0
0
0
0
0
0
0
0
0
0
0
0
0
0
0
0
0
0
0
0
0
0
0
0
0
0
0
0
0
0
0
0
0
0
0
0
0
0
0
0
0
0
0
0
0
0
0
0
0
0
0
0
0
0
0
0
0
0
0
0
0
0
0
0
0
0
0
0
0
0
0
0
0
0
0
0
0
0
0
0
0
0
0
0
0
0
0
0
0
0
0
0
0
0
0
0
0
0
0
0
0
0
0
0
0
0
0
0
0
0
0
0
0
0
0
0
0
0
0
0
0
0
0
0
0
0
0
0
0
0
0
0
0
0
0
0
0
0
0
0
0
0
0
0
0
0
0
0
0
0
0
0
0
0
0
0
0
0
0
0
0
0
0
0
0
0
0
0
0
0
0
0
0
0
0
0
0
0
0
0
0
0
0
0
0
0
0
0
0
0
0
0
0
0
0
0
0
0
0
0
0
0
0
0
0
0
0
0
0
0
0
0
0
0
0
0
0
0
0
0
0
255
255
255
0
0
0
0
0
0
0
0
0
0
0
0
0
0
0
0
0
0
0
0
0
0
0
0
0
0
0
0
0
0
0
0
0
0
0
0
0
0
0
0
0
0
0
0
0
0
0
0
0
0
0
0
0
0
0
0
0
0
0
0
0
0
0
0
0
0
0
0
0
0
0
0
0
0
0
0
0
0
0
0
0
0
0
0
0
0
0
0
0
0
0
0
0
0
0
0
0
0
0
0
0
0
0
0
0
0
0
0
0
0
0
0
0
0
0
0
0
0
0
0
0
0
0
0
0
0
0
0
0
0
0
0
0
0
0
0
0
0
0
0
0
0
0
0
0
0
0
0
0
0
0
0
0
0
0
0
0
0
0
0
0
0
0
0
0
0
0
0
0
0
0
0
0
0
0
0
0
0
0
0
0
0
0
0
0
0
0
0
0
0
0
0
0
0
0
0
0
0
0
0
0
0
0
0
0
0
0
0
0
0
0
0
0
0
0
0
0
0
0
0
0
0
0
0
0
0
0
0
0
0
0
0
0
0
0
0
0
0
0
0
0
0
0
0
0
0
0
0
0
0
0
0
0
0
0
0
0
0
0
0
0
0
0
0
0
0
0
0
0
0
0
0
0
0
0
0
0
0
0
0
0
0
0
0
0
0
0
0
0
0
0
0
0
0
0
0
0
0
0
0
0
0
0
0
0
0
0
0
0
0
0
0
0
0
0
0
0
0
0
0
0
0
0
0
0
0
0
0
0
0
0
0
0
0
0
0
0
0
0
0
0
0
0
0
0
0
0
0
0
0
0
0
0
0
0
0
0
0
0
0
0
0
0
0
0
0
0
0
0
